<?xml version="1.0" encoding="utf-8"?>
<!-- Generator: Adobe Illustrator 25.0.1, SVG Export Plug-In . SVG Version: 6.00 Build 0)  -->
<svg version="1.1" id="Layer_1" xmlns="http://www.w3.org/2000/svg" xmlns:xlink="http://www.w3.org/1999/xlink" x="0px" y="0px"
	 viewBox="0 0 680.8 584.2" style="enable-background:new 0 0 680.8 584.2;" xml:space="preserve">
<style type="text/css">
	.st0{fill:#6C63FF;}
	.st1{fill:#FFFFFF;}
</style>
<path class="st0" d="M326.6,547.7C182.1,547.7,65,430.6,65,286.1S182.1,24.5,326.5,24.5s261.6,117.1,261.6,261.6c0,0,0,0,0,0
	C588,430.5,470.9,547.5,326.6,547.7z"/>
<path class="st1" d="M311.4,384.9c-4.7,0-9.3-1.8-12.7-5l-86.2-80.1c-7.6-7-8-18.9-0.9-26.4c7-7.5,18.8-8,26.4-1l73.1,67.9
	l144.5-144.5c7.3-7.3,19.1-7.4,26.4-0.1c7.3,7.3,7.4,19.1,0.1,26.4c0,0-0.1,0.1-0.1,0.1L324.7,379.4
	C321.2,382.9,316.4,384.9,311.4,384.9z"/>
</svg>
