<svg id="Layer_1" data-name="Layer 1" xmlns="http://www.w3.org/2000/svg" viewBox="0 0 699.28 370.36"><defs><style>.cls-1{fill:#f2f2f2;}.cls-2{fill:#ccc;}.cls-3{fill:#a0616a;}.cls-4{fill:#2f2e41;}.cls-5{fill:#6c63ff;}.cls-6{fill:#3f3d56;}.cls-7{fill:#fff;}.cls-8{fill:#ffb8b8;}.cls-9{fill:#e6e6e6;}</style></defs><path class="cls-1" d="M84.19,132H69.92a5.36,5.36,0,0,1-5.35-5.35V68.35A5.36,5.36,0,0,1,69.92,63H84.19a5.35,5.35,0,0,1,5.35,5.35v58.26A5.34,5.34,0,0,1,84.19,132Z" transform="translate(-15.16 -63)"/><rect class="cls-2" x="50.01" y="11.3" width="23.78" height="4.76"/><rect class="cls-2" x="50.01" y="48.15" width="23.78" height="4.76"/><path class="cls-1" d="M119.86,132H105.59a5.36,5.36,0,0,1-5.35-5.35V68.35A5.36,5.36,0,0,1,105.59,63h14.27a5.35,5.35,0,0,1,5.35,5.35v58.26A5.34,5.34,0,0,1,119.86,132Z" transform="translate(-15.16 -63)"/><rect class="cls-2" x="85.68" y="11.3" width="23.78" height="4.76"/><rect class="cls-2" x="85.68" y="48.15" width="23.78" height="4.76"/><path class="cls-1" d="M155.53,132H141.27a5.36,5.36,0,0,1-5.36-5.35V68.35A5.36,5.36,0,0,1,141.27,63h14.26a5.35,5.35,0,0,1,5.35,5.35v58.26A5.34,5.34,0,0,1,155.53,132Z" transform="translate(-15.16 -63)"/><rect class="cls-2" x="121.35" y="11.3" width="23.78" height="4.76"/><rect class="cls-2" x="121.35" y="48.15" width="23.78" height="4.76"/><path class="cls-2" d="M355.22,133.75H16.35a1.19,1.19,0,0,1,0-2.38H355.22a1.19,1.19,0,1,1,0,2.38Z" transform="translate(-15.16 -63)"/><path class="cls-2" d="M335.15,320.4c0-9.19-34.6-16.65-77.29-16.65s-77.28,7.46-77.28,16.65c0,5.89,14.22,11.06,35.67,14v91.21a7.73,7.73,0,1,0,15.45,0V336.07c8.18.63,17,1,26.16,1s18-.35,26.16-1v89.56a7.73,7.73,0,0,0,15.46,0V334.42C320.92,331.46,335.15,326.29,335.15,320.4Z" transform="translate(-15.16 -63)"/><polygon class="cls-3" points="305.12 355.4 319.69 355.4 326.63 299.18 305.12 299.18 305.12 355.4"/><path class="cls-4" d="M363,431.94H317.15v-17.7h28.12a17.7,17.7,0,0,1,17.7,17.7Z" transform="translate(-15.16 -63)"/><polygon class="cls-3" points="327.87 347.27 341.78 342.9 331.56 287.18 311.04 293.62 327.87 347.27"/><path class="cls-4" d="M387.82,410.4l-43.71,13.72h0l-5.3-16.89h0l26.82-8.42a17.7,17.7,0,0,1,22.19,11.59Z" transform="translate(-15.16 -63)"/><path class="cls-4" d="M333.28,384.39l-26.67-70c-6,1.4-56.15,12.51-73-5.38-5.76-6.14-6.88-15-3.34-26.41l9.81-12.32h.3c3.71.2,90.88,5.08,96.86,31.38,5,22.17,14.24,63.5,16.94,75.64a5.36,5.36,0,0,1-3.35,6.16l-10.72,4a5.2,5.2,0,0,1-1.87.34A5.38,5.38,0,0,1,333.28,384.39Z" transform="translate(-15.16 -63)"/><path class="cls-4" d="M317.82,392.71l-26.66-70c-6,1.41-56.16,12.51-73-5.38-5.76-6.13-6.88-15-3.34-26.41l9.81-12.32.3,0c3.71.19,90.89,5.08,96.86,31.37,5,22.17,14.24,63.5,16.94,75.64a5.36,5.36,0,0,1-3.34,6.16l-10.73,4a5.43,5.43,0,0,1-1.87.34A5.37,5.37,0,0,1,317.82,392.71Z" transform="translate(-15.16 -63)"/><path class="cls-3" d="M353.86,224.91a12.64,12.64,0,0,0-1.05,1.67l-58.64,6.18-8.45-11.57-19.13,10.45,16.58,28.09,71.92-18.34a12.47,12.47,0,1,0-1.23-16.48Z" transform="translate(-15.16 -63)"/><path class="cls-5" d="M214.49,294.62a5.36,5.36,0,0,1-2.17-5.17c3.31-21.81-.5-53-4.27-75.42a29.47,29.47,0,0,1,32.77-34.2,94.33,94.33,0,0,1,11.78,2.32h0a29.25,29.25,0,0,1,22.1,29.09c-.57,21.59,3.82,48.52,5.73,59.1a5.4,5.4,0,0,1-1,4.17,5.19,5.19,0,0,1-3.68,2.08c-21.18,2.17-44,12.49-55.74,18.45a5.3,5.3,0,0,1-2.44.6A5.2,5.2,0,0,1,214.49,294.62Z" transform="translate(-15.16 -63)"/><path class="cls-5" d="M271.64,238.36a5.27,5.27,0,0,1-2.94-2.85l-11.81-27.27A13.68,13.68,0,0,1,282,197.37l11.81,27.28a5.37,5.37,0,0,1-2.79,7l-15.27,6.61a5.3,5.3,0,0,1-4.1.06Z" transform="translate(-15.16 -63)"/><path class="cls-3" d="M298,222.54a12,12,0,0,0-1.06,1.66l-58.64,6.18-8.44-11.57-19.13,10.45,16.58,28.09L299.21,239a12.48,12.48,0,1,0-.23-17.64,11.21,11.21,0,0,0-1,1.17Z" transform="translate(-15.16 -63)"/><path class="cls-5" d="M215.76,239.55a5.3,5.3,0,0,1-2.94-2.85L201,209.42a13.67,13.67,0,0,1,25.09-10.88v0l11.8,27.28a5.36,5.36,0,0,1-2.78,7l-15.28,6.61a5.28,5.28,0,0,1-4.09.06Z" transform="translate(-15.16 -63)"/><circle class="cls-3" cx="223.48" cy="78.34" r="29.2"/><path class="cls-4" d="M217.76,161.39a2.55,2.55,0,0,1,1.59-3.23A2.62,2.62,0,0,1,220,158a5.81,5.81,0,0,1,4.13,2,16.63,16.63,0,0,0,3.66,3.13c1.41.71,3.33.61,4.13-.75s.24-3-.22-4.46a44,44,0,0,1-1.94-11.62c-.13-4.4.49-9,2.93-12.42,3.14-4.43,8.76-6.11,14.08-6s10.55,1.77,15.82,2.81c1.82.35,4,.54,5.18-.87s.82-3.93.27-6c-1.43-5.26-2.95-10.69-6.26-14.93A22.48,22.48,0,0,0,247.41,101a34.33,34.33,0,0,0-16,1.82,42.88,42.88,0,0,0-21,14.64,34.77,34.77,0,0,0-6.63,25.69,31.71,31.71,0,0,0,11.76,20Z" transform="translate(-15.16 -63)"/><path class="cls-6" d="M106.26,231.69a145.15,145.15,0,0,1,12-45.79c1.81-4,3.79-8,6-11.85a.89.89,0,0,0-1.53-.89,147,147,0,0,0-16.37,45.16q-1.23,6.65-1.85,13.37C104.39,232.82,106.16,232.82,106.26,231.69Z" transform="translate(-15.16 -63)"/><circle class="cls-5" cx="113.36" cy="102.69" r="11.19"/><path class="cls-6" d="M107.4,232a94.25,94.25,0,0,1,7.8-29.71q1.76-3.93,3.87-7.68a.58.58,0,0,0-.24-.78.56.56,0,0,0-.75.2,95.34,95.34,0,0,0-10.62,29.29c-.54,2.88-.93,5.77-1.2,8.68C106.19,232.72,107.34,232.72,107.4,232Z" transform="translate(-15.16 -63)"/><circle class="cls-5" cx="106.68" cy="126.17" r="7.26"/><path class="cls-6" d="M106,231.3a94.06,94.06,0,0,1-12.13-28.21q-1-4.18-1.68-8.44a.57.57,0,0,0-1.13.15,95.57,95.57,0,0,0,9.64,29.63q2,3.88,4.39,7.58c.4.62,1.3-.09.91-.71Z" transform="translate(-15.16 -63)"/><circle class="cls-5" cx="91.01" cy="188.66" r="7.26" transform="matrix(1, -0.1, 0.1, 1, -33.31, -53.11)"/><path class="cls-2" d="M83.66,237.73V223.46A5.36,5.36,0,0,1,89,218.11h33.3a5.36,5.36,0,0,1,5.35,5.35v14.27a5.36,5.36,0,0,1-5.35,5.35H89A5.36,5.36,0,0,1,83.66,237.73Z" transform="translate(-15.16 -63)"/><path class="cls-2" d="M288.18,233.6h93.93a4.17,4.17,0,0,1,4.17,4.16h0a4.17,4.17,0,0,1-4.17,4.16H288.18a4.16,4.16,0,0,1-4.16-4.16h0A4.16,4.16,0,0,1,288.18,233.6Z" transform="translate(-15.16 -63)"/><path class="cls-2" d="M445.13,241.92H339.31a7.73,7.73,0,0,1-7.73-7.72V175.93a7.73,7.73,0,0,1,7.73-7.72H445.13a7.73,7.73,0,0,1,7.73,7.72V234.2A7.73,7.73,0,0,1,445.13,241.92Z" transform="translate(-15.16 -63)"/><circle class="cls-7" cx="377.06" cy="142.07" r="7.13"/><path class="cls-2" d="M714.44,320.4c0-9.19-34.6-16.65-77.28-16.65s-77.29,7.46-77.29,16.65c0,5.89,14.23,11.06,35.67,14v91.21a7.73,7.73,0,1,0,15.46,0V336.07c8.17.63,17,1,26.16,1s18-.35,26.16-1v89.56a7.73,7.73,0,1,0,15.45,0V334.42C700.22,331.46,714.44,326.29,714.44,320.4Z" transform="translate(-15.16 -63)"/><circle class="cls-4" cx="630.54" cy="71.74" r="33.29"/><polygon class="cls-8" points="547.69 356.59 533.12 356.59 526.18 300.37 547.7 300.37 547.69 356.59"/><path class="cls-4" d="M537.86,415.43H566v17.7H520.16a17.7,17.7,0,0,1,17.7-17.7Z" transform="translate(-15.16 -63)"/><polygon class="cls-8" points="524.94 348.46 511.03 344.09 521.25 288.37 541.77 294.81 524.94 348.46"/><path class="cls-4" d="M517.5,400l26.82,8.42h0L539,425.31h0l-43.72-13.72h0A17.7,17.7,0,0,1,517.5,400Z" transform="translate(-15.16 -63)"/><path class="cls-4" d="M544.84,389a5.2,5.2,0,0,1-1.87-.34l-10.72-4a5.36,5.36,0,0,1-3.35-6.16c2.7-12.14,11.9-53.47,16.94-75.64,6-26.3,93.15-31.18,96.86-31.38h.3l9.81,12.32c3.54,11.39,2.42,20.27-3.34,26.4-16.8,17.9-67,6.79-73,5.39l-26.67,70A5.38,5.38,0,0,1,544.84,389Z" transform="translate(-15.16 -63)"/><path class="cls-4" d="M560.3,397.35a5.21,5.21,0,0,1-1.87-.35l-10.73-4a5.36,5.36,0,0,1-3.34-6.16c2.7-12.14,11.9-53.47,16.94-75.64,6-26.29,93.15-31.18,96.86-31.38h.3l9.81,12.32c3.54,11.39,2.42,20.28-3.34,26.41-16.8,17.89-67,6.79-73,5.38l-26.66,70A5.4,5.4,0,0,1,560.3,397.35Z" transform="translate(-15.16 -63)"/><path class="cls-8" d="M529.27,226.1a12.64,12.64,0,0,1,1.05,1.67L589,234l8.45-11.58,19.13,10.46L600,260.92,528,242.58a12.47,12.47,0,1,1,1.23-16.48Z" transform="translate(-15.16 -63)"/><path class="cls-5" d="M665.55,296.83a5.3,5.3,0,0,1-2.44-.6c-11.73-6-34.56-16.29-55.74-18.45a5.23,5.23,0,0,1-3.68-2.08,5.4,5.4,0,0,1-1-4.17c1.91-10.58,6.3-37.51,5.73-59.1a29.25,29.25,0,0,1,22.1-29.09h0A94.33,94.33,0,0,1,642.31,181a29.47,29.47,0,0,1,32.77,34.2c-3.77,22.36-7.58,53.61-4.27,75.42a5.36,5.36,0,0,1-2.17,5.17A5.27,5.27,0,0,1,665.55,296.83Z" transform="translate(-15.16 -63)"/><path class="cls-5" d="M609.52,239.93a5.38,5.38,0,0,1-2.13-.44l-15.27-6.61a5.37,5.37,0,0,1-2.79-7l11.81-27.28a13.67,13.67,0,0,1,25.11,10.84v0L614.43,236.7a5.36,5.36,0,0,1-4.91,3.23Z" transform="translate(-15.16 -63)"/><circle class="cls-8" cx="629.33" cy="79.53" r="29.2"/><path class="cls-4" d="M614.76,128.19a105.3,105.3,0,0,0,45.57,15l-4.81-5.75a35.38,35.38,0,0,0,10.91,2.16c3.72-.06,7.62-1.49,9.73-4.55a11.12,11.12,0,0,0,.74-10.27,21.09,21.09,0,0,0-6.61-8.27A39.44,39.44,0,0,0,633.61,110a23.61,23.61,0,0,0-11,7c-2.77,3.42-8.1,6.46-6.68,10.62Z" transform="translate(-15.16 -63)"/><path class="cls-4" d="M649.4,104.62A89.79,89.79,0,0,0,616.74,83.5c-7.89-2.92-16.48-4.73-24.74-3.07S576,87.8,573.65,95.9c-1.89,6.62.06,13.75,3,20s6.82,12,9.18,18.48a42.17,42.17,0,0,1-42.43,56.55c8.11,1.09,15.58,4.9,23.51,6.93s17.28,1.89,23.17-3.79c6.23-6,6.35-15.78,6.05-24.43l-1.34-38.57c-.23-6.56-.43-13.33,1.94-19.45s8-11.48,14.55-11.43c5,0,9.37,3.06,13.36,6s8.21,6.14,13.16,6.58,10.61-3.22,10.24-8.18" transform="translate(-15.16 -63)"/><polygon class="cls-9" points="498.49 141.6 565.73 143.18 575.48 215.07 513.38 216.46 498.49 141.6"/><path class="cls-8" d="M585.15,223.73a12,12,0,0,1,1.06,1.66l58.64,6.18L653.29,220l19.13,10.45-16.58,28.09L583.92,240.2a12.48,12.48,0,1,1,.23-17.65,11.33,11.33,0,0,1,1,1.18Z" transform="translate(-15.16 -63)"/><path class="cls-5" d="M665.4,241.12a5.33,5.33,0,0,1-2.12-.44L648,234.07a5.36,5.36,0,0,1-2.78-7L657,199.75a13.67,13.67,0,0,1,25.11,10.84v0l-11.81,27.28a5.36,5.36,0,0,1-4.91,3.23Z" transform="translate(-15.16 -63)"/><path class="cls-6" d="M527.17,240.74H54a7.73,7.73,0,1,0,0,15.45H67.62V424.44a7.73,7.73,0,0,0,15.46,0V271l86.64,157a7.73,7.73,0,0,0,13.39-7.73L92.54,256.19H506.37v.1L415.85,420.36a7.73,7.73,0,0,0,13.38,7.73h0l77.14-139.81V424.44a7.73,7.73,0,1,0,15.45,0V260.27l2.25-4.08h3.1a7.73,7.73,0,1,0,0-15.45Z" transform="translate(-15.16 -63)"/></svg>