<svg id="Layer_1" data-name="Layer 1" xmlns="http://www.w3.org/2000/svg" viewBox="0 0 350.4 292"><defs><style>.cls-1{fill:#3d83c5;}.cls-2{fill:#fff;}.cls-3{fill:#ed1c24;}</style></defs><rect class="cls-1" x="21.69" y="223.56" width="135.55" height="29.34" rx="14.67" transform="translate(-223.56 313.7) rotate(-90)"/><rect class="cls-1" x="60.9" y="128.84" width="162.91" height="29.34" rx="14.67" transform="translate(-132.96 103.95) rotate(-37.97)"/><rect class="cls-1" x="168.22" y="126.06" width="158.81" height="29.34" rx="14.67" transform="translate(55.73 -132.91) rotate(36.11)"/><rect class="cls-1" x="231.02" y="220.1" width="138.71" height="29.34" rx="14.67" transform="translate(-9.19 521.14) rotate(-90)"/><rect class="cls-1" x="54.34" y="262.67" width="185.91" height="29.34" rx="14.67"/><rect class="cls-1" x="-2.3" y="145.33" width="292" height="29.34" rx="14.67" transform="translate(-91.09 289.71) rotate(-90)"/><rect class="cls-1" x="54.24" width="296.07" height="29.34" rx="14.67"/><rect class="cls-1" x="264.53" y="145.33" width="292" height="29.34" rx="14.67" transform="translate(175.73 556.54) rotate(-90)"/><ellipse class="cls-2" cx="269.64" cy="84.51" rx="44.07" ry="42.22"/><path class="cls-3" d="M359.05,70.67h-.14a16.3,16.3,0,0,0-13.61,7.45,16.33,16.33,0,0,0-13.62-7.45h-.14a16.19,16.19,0,0,0-16.05,16.19c0,5.3,2.32,12.83,6.85,19,8.63,11.79,23,22.11,23,22.11s14.33-10.32,22.95-22.11c4.53-6.19,6.85-13.72,6.85-19A16.19,16.19,0,0,0,359.05,70.67Zm-2,36.11a3.2,3.2,0,0,1-3-2.06h-3.4a1.07,1.07,0,0,1-1-.73l-1.05-3.15-3.3,11.55a1.07,1.07,0,0,1-1,.77h-.07a1.05,1.05,0,0,1-1-.88l-3.4-20.49-2.49,12.12a1.07,1.07,0,0,1-1,.81h-4.79a1.07,1.07,0,1,1-.09-2.13h4.05l3.52-16.3a1.07,1.07,0,0,1,2.1.09l3.48,20.9,3-10.34a1.06,1.06,0,0,1,1-.76h0a1.07,1.07,0,0,1,1,.73l1.89,5.69H354a3.19,3.19,0,1,1,3,4.19Z" transform="translate(-74.8 -14)"/></svg>