<svg id="b098510b-f452-4b85-993b-a1bbfe267c61" xmlns="http://www.w3.org/2000/svg" xmlns:xlink="http://www.w3.org/1999/xlink" viewBox="0 0 320.06 759.58"><defs><style>.cls-1{fill:#6c63ff;}.cls-1,.cls-12,.cls-5{opacity:0.1;}.cls-1,.cls-12,.cls-5,.cls-8{isolation:isolate;}.cls-2{fill:url(#linear-gradient);}.cls-3{fill:#1d2366;}.cls-4{fill:#ffb0b1;}.cls-6{fill:#c7daf5;}.cls-12,.cls-7{fill:#fff;}.cls-8{opacity:0.03;}.cls-9{fill:#dce7ff;}.cls-10{fill:#591d4b;}.cls-11{fill:#be8b87;}.cls-13{fill:#efc8c4;}.cls-14{fill:#727a9c;}</style><linearGradient id="linear-gradient" x1="593.12" y1="-26.63" x2="593.12" y2="712.37" gradientTransform="matrix(1, 0, 0, -1, -47.24, 725.37)" gradientUnits="userSpaceOnUse"><stop offset="0" stop-color="gray" stop-opacity="0.25"/><stop offset="0.54" stop-color="gray" stop-opacity="0.12"/><stop offset="1" stop-color="gray" stop-opacity="0.1"/></linearGradient></defs><ellipse class="cls-1" cx="160.18" cy="739.01" rx="159.88" ry="20.58"/><rect class="cls-1" x="143.55" y="192.68" width="37.4" height="37.4"/><rect class="cls-1" x="143.55" y="284.92" width="37.4" height="37.4"/><rect class="cls-1" x="143.55" y="377.15" width="37.4" height="37.4"/><rect class="cls-1" x="143.55" y="469.39" width="37.4" height="37.4"/><path class="cls-2" d="M685.53,363.63s-21.71-108-13.4-121.45c0,0,.31-12.49-.19-28.41v-1.83a39.65,39.65,0,0,0,4.56,2.63,36.94,36.94,0,0,0,24.85,3.21l-6.57-7.33c-1.58-1.74-3.23-3.64-3.57-5.95s.61-4.38,1.42-6.44c6.25-15.78,6.58-35.63-5.45-47.67C677,140.27,674.54,127.2,663.51,118c-8.06-6.77-12.49-16.7-16.68-26.3-3.53-8.11-7.1-16.29-9.12-24.89-1.58-6.72-2.21-13.67-4.38-20.23s-6.23-12.94-12.58-15.87c-2.26-1-4.78-1.63-6.84-3-2.71-1.83-4.34-4.8-6.3-7.41-10-13.15-43.29-5.4-59.06-.06a33,33,0,0,0-11.68,6.47l.14-.24c.12-.2.27-.39.4-.59A20.57,20.57,0,0,0,533,30.75c-2.3,3.64-3.26,7.89-5.18,11.83-2.31,4.67-15.19,17.7-9.65,23a4.88,4.88,0,0,0,1.31.84,11.49,11.49,0,0,0,6.58.66l-.24.56A38.37,38.37,0,0,0,523,82.17c0,21.61,17.82,39.12,39.81,39.12A40,40,0,0,0,575,119.41c.09.5.17,1,.27,1.5a3.82,3.82,0,0,0,.09.59h0l-.7,1a.94.94,0,0,0-.12-.18l-20.64,28.85c-3.16,2.23-21.33,15.37-22.35,25.24-1.08,10.79-2.16,23.43-2.16,23.43l-.15,2.71a8.12,8.12,0,0,1-6.57,1.77c-6.44-1.05-6.44,23.67-6.44,23.67s-4.29,3.94-7.24.53-10.72,8.16-10.72,8.16l-48.79,2.1h0l-1.11.07-2.63-8.14a3.42,3.42,0,0,0-4.3-2.19,4,4,0,0,0-.6.24l-.18.11-.34.24-.17.15a3.57,3.57,0,0,0-.27.28l-.15.18-.08.08h0a3.34,3.34,0,0,0-.48,2.95l2.27,7c-9.42,1.89-19,7.23-11.19,21.93l-39.79-7.35,12.87,10.81,66.45,13.72c-.88,1.57-.3,3.86,2.45,7.08,11.83,13.9,33.4,17.68,42.08,18.65A74.57,74.57,0,0,0,522.8,319l-.75,13.85s-22,105.53-26,110.88a62.68,62.68,0,0,0,5.56-7.32c-6.38,21.68-15.29,51.36-17.64,55.8-3.76,7.1-7.24,35.83-3,37.67,1.31.57,5.07.29,10.44-.11v2.38l-.24,90.18s1.08,55.32-1.88,60.59-3.75,16.34-3.75,16.34-11.83,21.81-21.21,30.58a.91.91,0,0,1-.21.18l-.29-2s-11.27,14.23-36.2,13.43c0,0-15,9.75,7.25,10.28s50.66-.79,50.66-.79,19.84-30.24,36.46-26.3v22.92h5.09V724.24a20.85,20.85,0,0,0,9.06-13.72,16.66,16.66,0,0,0-5.94-15.42,9.88,9.88,0,0,1-3.25-7.21l-.18.16c0-.46-.12-.93-.17-1.42-1.46-11.83-3.29-36.25,3.17-54.32,8.84-24.77,11.53-59.27,5.08-79.81a184.32,184.32,0,0,1-5.11-20c-.16-.86-.3-1.67-.44-2.43a103.38,103.38,0,0,1,13.06,2.62c14.93,4.12,47.57,4.88,75.45,4.66.07.76.14,1.56.24,2.37a85.35,85.35,0,0,0,3.1,16.46c3.5,10.52,5.1,56.89,5.1,56.89s4.51,38.14,2,53.65c-1.31,8.63-2.63,17.29-3.38,26v.17s-7.39,21-12.79,32.46c-.13.29-.28.58-.41.86a17,17,0,0,0-4.22.93S600.33,741.6,593.11,744s-4.83,10.27,11.52,7.37,41-5.26,41-5.26l1.07-14.75,5-6.28-1.32,14.71,5.36-1-.71-17.9,8.21-10.28s9.93-8.84-4.82-26.22v.38c-.16-.25-.3-.51-.48-.76v-.08c-2.44-3.79-4.39-10.85-.82-23.38,6.44-22.64,10.19-43.19,10.19-43.19s14.38-55.06-2.91-81.1h.76a44,44,0,0,1-3.72-11.58c-.09-.47-.16-1-.23-1.45,12.79-.74,25.35-3.06,35.59-8C696.8,515.08,690.63,384.43,685.53,363.63ZM523.1,272.5v.27l-2.63.13Zm-9,1.25a2.94,2.94,0,0,0-1.18.57,11.64,11.64,0,0,0-2.06,5.4l-4.11-.92s-2.88-.62-7-1.31l-2-2C503.14,275.07,508.74,274.41,514.08,273.75Z" transform="translate(-390.42 -13)"/><polygon class="cls-3" points="259.4 708.03 257.84 726.66 263.08 725.61 262.29 705.4 259.4 708.03"/><path class="cls-4" d="M530.12,632.56c-6.32,18-4.53,42.33-3.11,54.13.52,4.37,1,7,1,7s-9.45,21.53-10.24,22.35S490,733.39,490,733.39l-18.89,11s-19.17-8.4-10-11.3a13.82,13.82,0,0,0,5-3.38c9.2-8.74,20.76-30.47,20.76-30.47s.79-11,3.68-16.28,1.84-60.38,1.84-60.38l.22-89.88V521l36,.26a80.11,80.11,0,0,0,1.55,11.84,179.84,179.84,0,0,0,5,19.93C541.41,573.55,538.78,607.88,530.12,632.56Z" transform="translate(-390.42 -13)"/><path class="cls-5" d="M528,693.72s-9.45,21.53-10.24,22.35S490,733.39,490,733.39l-18.89,11s-19.17-8.4-10-11.3a13.82,13.82,0,0,0,5-3.38l.81,5.75,6.3-.26,53.91-48.51C527.53,691.06,528,693.72,528,693.72Z" transform="translate(-390.42 -13)"/><path class="cls-3" d="M527.36,687.94l-54.21,48.84-6.3.26-1.31-9.2s-11,14.17-35.5,13.38c0,0-14.71,9.72,7.08,10.25s49.61-.79,49.61-.79,19.44-30.24,35.7-26.3v22.84h5V724.17a20.78,20.78,0,0,0,8.86-13.68,16.73,16.73,0,0,0-5.8-15.35A9.92,9.92,0,0,1,527.36,687.94Z" transform="translate(-390.42 -13)"/><path class="cls-4" d="M654.82,660.65c-3.5,12.49-1.6,19.52.8,23.3V684a43,43,0,0,1,6.28,15.34l.21,1.18-24.66,36-13.39,5.26s-21.52-7.35-17.59-9.46c1-.51,2.52-3.25,4.28-7,5.26-11.37,12.52-32.36,12.52-32.36v-.17c.76-8.67,2-17.3,3.32-25.9,2.4-15.48-2-53.47-2-53.47s-1.57-46.19-5-56.7a86.51,86.51,0,0,1-3.07-16.35c-.71-6.58-.86-12-.86-12s14.17-19.73,40.15,1.57a28.64,28.64,0,0,1,5.43,5.89c17.95,25.54,3.5,81.79,3.5,81.79S661.11,638.07,654.82,660.65Z" transform="translate(-390.42 -13)"/><path class="cls-5" d="M662.15,700.55l-24.66,36-13.39,5.26s-21.52-7.35-17.59-9.46c1-.51,2.52-3.25,4.28-7,9.12-.08,13.84,8.6,13.84,8.6l11.54-1.84s15.23-29.93,18.65-31.76.52-13.66.52-13.66v-3a4.09,4.09,0,0,0,.28.33V684a43,43,0,0,1,6.28,15.34Z" transform="translate(-390.42 -13)"/><path class="cls-3" d="M625.41,734.68s-6.57-12.08-19.17-7.62c0,0-7.08,14.47-14.17,16.81s-4.72,10.23,11.29,7.35S643.52,746,643.52,746l1.05-14.72,16.28-20.73s9.7-8.8-4.73-26.12v3s2.89,11.83-.53,13.66S637,732.83,637,732.83Z" transform="translate(-390.42 -13)"/><path class="cls-5" d="M528.55,521.26a80,80,0,0,0,1.55,11.83c-14.81-2.17-28.55-1.09-37.56-.38V521Z" transform="translate(-390.42 -13)"/><path class="cls-5" d="M662.69,539.1s-21,1-46.12,1.23c-.71-6.57-.87-12-.87-12s14.17-19.72,40.15,1.58a28.39,28.39,0,0,1,5.43,5.89A32.88,32.88,0,0,0,662.69,539.1Z" transform="translate(-390.42 -13)"/><path class="cls-3" d="M662.69,536.73s-92.15,4.46-120.23-3.42-55.92-1-60.12-2.88-.79-30.45,2.89-37.54,23.88-78.76,23.88-78.76l19.44-101.32L549,307.16l1.45-.4,35.67-9.84,26.14-7.22s52,202.93,47.52,217.89A38.27,38.27,0,0,0,659,525.2,44.12,44.12,0,0,0,662.69,536.73Z" transform="translate(-390.42 -13)"/><path class="cls-6" d="M460.8,243.51s-18.4,19.72-4.47,30.72,23.11,1,23.11,1Z" transform="translate(-390.42 -13)"/><path class="cls-5" d="M460.8,243.51s-18.4,19.72-4.47,30.72,23.11,1,23.11,1Z" transform="translate(-390.42 -13)"/><path class="cls-4" d="M609.53,113.84s-2.16,2-5.4,5.07c-4.63,4.33-11.48,10.65-17.56,16-8.41,7.33-15.36,12.7-12.87,8.11s2-12.58.78-20.06c-.1-.5-.18-1-.27-1.49a137.83,137.83,0,0,0-4.06-16.25s13.6-17.57,21.12-24.49c2.8-2.63,4.76-3.71,4.88-1.89.13,2.46,2,7.89,4.26,13.65a5,5,0,0,0,.21.54c1.52,4,3.24,8,4.76,11.49C607.69,109.84,609.53,113.84,609.53,113.84Z" transform="translate(-390.42 -13)"/><path class="cls-5" d="M600.62,93a39,39,0,0,1-26.14,29.93,137,137,0,0,0-4.33-17.74s25.6-33.07,26-26.38C596.24,81.33,598.24,87,600.62,93Z" transform="translate(-390.42 -13)"/><path class="cls-5" d="M571.92,131.75l3.32-4.67s2.19,13.38,10.27,7.48S594,179,594,179l-8.67,129.56L522.7,304.8l1.77-62.6,7.09-31.56,17.53-45.88,10.42-15.16Z" transform="translate(-390.42 -13)"/><path class="cls-3" d="M594,179.79l-7.89,117.15-.83,12.41-34.91-2.09-1.32-.08-26.3-1.58L524.51,243l7.09-31.56,17.52-45.88,10.43-15.16L572,132.47l3.32-4.66s2.19,13.39,10.27,7.49l.17-.12h0C593.61,130.18,594,179.79,594,179.79Z" transform="translate(-390.42 -13)"/><path class="cls-7" d="M532.48,200.46S529.34,207,523,206s-6.29,23.67-6.29,23.67-4.2,3.94-7.09.52-10.52,8.14-10.52,8.14l-47.78,2.11s21.26,9.72,17.09,39.12c0,0,72.19-4.47,74.55-11.3S532.48,200.46,532.48,200.46Z" transform="translate(-390.42 -13)"/><path class="cls-8" d="M532.48,200.46S529.34,207,523,206s-6.29,23.67-6.29,23.67-4.2,3.94-7.09.52-10.52,8.14-10.52,8.14l-47.78,2.11s21.26,9.72,17.09,39.12c0,0,72.19-4.47,74.55-11.3S532.48,200.46,532.48,200.46Z" transform="translate(-390.42 -13)"/><polygon class="cls-7" points="3.19 242.86 15.79 253.61 119.48 275.4 106.63 262.28 3.19 242.86"/><path class="cls-7" d="M572.12,135.89c-1.72,2.63-6.65,16.09-10.77,27.85-3.43,9.79-6.3,18.41-6.3,18.41s-6.69,43.57-10.11,51.45-1.56,38.59-1.56,38.59L530.64,348s-5.78,39.12-14.69,62.49c-8.8,23-18.59,33.78-18.89,34.12C501,439.31,522.5,334.2,522.5,334.2l7.1-132.57s1-12.59,2.09-23.36S554,152.8,554,152.8l20.54-29.21C576.65,126.35,575.26,131.17,572.12,135.89Z" transform="translate(-390.42 -13)"/><path class="cls-4" d="M518.57,306.26s-30.25-1.32-44.89-18.91,33.85-7,33.85-7l12.61,2.89Z" transform="translate(-390.42 -13)"/><path class="cls-5" d="M659.8,507.61a38.23,38.23,0,0,0-.76,17.6c-33,2.34-68.29-6.57-68.29-6.57-6.57,6.05-23.89,15-23.89,15l-9.44-117c-6-15.78-8.4-98.45-8.4-98.45s.54-4.32,1.31-10.81a1.12,1.12,0,0,1,.07-.48c2.35-18.11,7-52.1,9.31-56.69,3.16-6.31-9.7-23.1-9.7-23.1l5.85-49.9.71-6C568.9,165.62,578.35,148,578.35,148l7.26-12.71h0c7.89-5.06,8.3,44.55,8.3,44.55L586,297l26.14-7.22S664.26,492.64,659.8,507.61Z" transform="translate(-390.42 -13)"/><path class="cls-7" d="M693.66,515.69c-36,17.86-101.33,1.32-101.33,1.32-6.57,6-23.89,15-23.89,15L559,415c-6-15.78-8.39-98.45-8.39-98.45s7.6-61.68,10.75-68c.92-1.84.48-4.57-.61-7.52A95.13,95.13,0,0,1,555,197l2.52-21.44.7-6C570.54,164,580,146.39,580,146.39l6.57-11.52,12.1-21.22,5.73-10,1,.88,7.42,6.73,7.89,6.57c10.3,8.68,28.09,24,37.27,33.31,8.07,8.23,10.62,40.25,11.36,64.35.49,15.87.2,28.31.2,28.31-8.14,13.4,13.15,121,13.15,121C687.62,385.52,693.66,515.69,693.66,515.69Z" transform="translate(-390.42 -13)"/><path class="cls-8" d="M624.63,146.13S600,193.11,602.81,211s11,38.06,7.09,42.78a14.53,14.53,0,0,1-11.56,5.78c-3.94.26-14.46,7.61-14.46,8.4s-9.72.79-18.41,4.47-21.53,5.77-21.53,5.77-25-.79-27.31,1.58-4.72,16.53.27,27.82,10.52,19.73,14.7,21.26,30.71-7.35,52.24-9.45,44.89-19.16,44.89-19.16S654.46,291,659,275.54,653.46,175,653.46,175,645.89,135.36,624.63,146.13Z" transform="translate(-390.42 -13)"/><path class="cls-8" d="M621.47,142.19s-24.68,47-21.79,64.83,11,38.07,7.08,42.8a14.46,14.46,0,0,1-11.55,5.77c-3.94.27-14.46,7.62-14.46,8.41s-9.72.79-18.41,4.45-21.53,5.78-21.53,5.78-25-.79-27.29,1.57-4.74,16.55.26,27.83,10.52,19.72,14.7,21.26,30.72-7.35,52.24-9.44,44.89-19.17,44.89-19.17,25.72-9.21,30.18-24.67-5.51-100.55-5.51-100.55S642.73,131.43,621.47,142.19Z" transform="translate(-390.42 -13)"/><path class="cls-7" d="M623.85,143.76s-24.68,47-21.79,64.84,11,38.07,7.09,42.79a14.45,14.45,0,0,1-11.56,5.78c-3.94.27-14.46,7.62-14.46,8.39s-9.71.79-18.41,4.47-21.53,5.77-21.53,5.77-25-.78-27.31,1.58-4.72,16.54.27,27.83,10.52,19.72,14.7,21.26,30.71-7.35,52.24-9.46S628,297.86,628,297.86s25.73-9.21,30.24-24.68-5.44-100.54-5.44-100.54S645.1,133.06,623.85,143.76Z" transform="translate(-390.42 -13)"/><path class="cls-5" d="M623.31,269.81s-19.72-3.95-12.86,2.63,6.83,12.33,15.23,12.07S623.31,269.81,623.31,269.81Z" transform="translate(-390.42 -13)"/><path class="cls-5" d="M656.64,411.26s-8.91,6,8.14,19.95S656.64,411.26,656.64,411.26Z" transform="translate(-390.42 -13)"/><path class="cls-5" d="M639.63,460.88c0,.78-3.16,28.92,8.65,36S639.63,460.88,639.63,460.88Z" transform="translate(-390.42 -13)"/><path class="cls-4" d="M452.15,240.34c-9.52.33-30.08,3.24-19.42,23.13,9.43,17.61,25.27,5.84,34.19-3.09A33.61,33.61,0,0,0,452.15,240.34Z" transform="translate(-390.42 -13)"/><path class="cls-4" d="M467.89,259.29Z" transform="translate(-390.42 -13)"/><path class="cls-4" d="M467,260.22l.39-.4Z" transform="translate(-390.42 -13)"/><path class="cls-5" d="M620.69,118.6c-10.09,6.9-18.56,12.72-20.22,13.93-4.52,3.36-13.15,23-18.71,33.09-4.43,8.08-18.83,10.16-24.26,10.67l.7-6c12.34-5.52,21.8-23.11,21.8-23.11l24.4-42.79,8.4,7.64Z" transform="translate(-390.42 -13)"/><path class="cls-9" d="M620.69,117.81c-10.09,6.9-18.56,12.73-20.22,13.95-4.52,3.34-13.15,23-18.71,33.07-4.43,8.08-18.83,10.16-24.26,10.67l.7-6C570.54,164,580,146.38,580,146.38l24.4-42.79,8.4,7.62S616,113.81,620.69,117.81Z" transform="translate(-390.42 -13)"/><path class="cls-4" d="M601.26,84.3a39,39,0,1,1-16.9-32.12A38.94,38.94,0,0,1,601.26,84.3Z" transform="translate(-390.42 -13)"/><path class="cls-5" d="M669.32,215.46A34.57,34.57,0,0,1,656.74,202c-2.2-4.34-3.66-9.35-7.41-12.43-3.38-2.76-7.89-3.43-12.09-4.67-13.84-4.09-25.43-16.71-25.87-31.12-.21-6.78,1.91-13.56,1-20.28A22.53,22.53,0,0,0,607.93,123a35.88,35.88,0,0,0-3.8-4.09c-1.84-1.73-3.78-3.42-5.46-5.26a20.18,20.18,0,0,1-2.76-3.74,18,18,0,0,1-1.51-3.49c-2.63-8-.24-17.59-3.13-25.73l-.16-.45c-1.09-2.89-3.31-5.78-6.4-6S579,76.57,576,77.72c-6.17,2.39-12.82-1.69-18-5.84s-10.94-8.9-17.48-8c-4.32.62-7.74,3.56-11.73,5.09a17.88,17.88,0,0,1-2.77.8,39,39,0,0,1,74.32,22.67c.06.18.13.35.21.54,1.52,3.94,3.24,8,4.76,11.49l7.42,6.73,7.89,6.57c10.3,8.68,28.09,24,37.27,33.31C666,159.36,668.56,191.36,669.32,215.46Z" transform="translate(-390.42 -13)"/><path class="cls-10" d="M528.4,45c1.88-3.82,2.82-8.11,5.06-11.74,3.3-5.26,9.06-8.62,15-10.66,15.45-5.33,48.1-13.06,57.86,0,1.92,2.63,3.51,5.55,6.16,7.36,2,1.38,4.47,2,6.7,3,6.22,2.92,10.19,9.28,12.3,15.78s2.75,13.46,4.3,20.16c2,8.58,5.47,16.72,8.94,24.81,4.09,9.55,8.43,19.45,16.32,26.19,10.77,9.21,13.15,22.24,23.14,32.34,11.84,12,11.46,31.78,5.36,47.49-.81,2.06-1.71,4.22-1.4,6.42s2,4.19,3.49,5.94l6.47,7.3c-15.31,3.69-32.63-4.3-39.75-18.33-2.2-4.34-3.66-9.34-7.42-12.43-3.37-2.76-7.89-3.42-12.08-4.65C625,179.84,613.4,167.21,613,152.8c-.21-6.77,1.91-13.55.95-20.25A22.22,22.22,0,0,0,609.5,122c-3.61-4.72-9.07-7.89-12-13.15-5-8.8-1.2-20.22-4.79-29.66-1.1-2.9-3.31-5.79-6.4-6s-5.74,2.34-8.69,3.48c-6.16,2.39-12.81-1.67-18-5.84s-10.94-8.9-17.49-8c-4.33.61-7.73,3.55-11.72,5.09-2.94,1.13-8.91,2.15-11.49-.34C513.52,62.62,526.13,49.64,528.4,45Z" transform="translate(-390.42 -13)"/><path class="cls-5" d="M662,196.69c-2.21-4.34-3.65-9.34-7.41-12.41-3.37-2.77-7.89-3.44-12.1-4.67-13.82-4.09-25.42-16.73-25.87-31.14-.21-6.77,1.91-13.56,1-20.26a22.4,22.4,0,0,0-4.4-10.45c-3.63-4.73-9.09-7.89-12-13.15-5-8.79-1.19-20.21-4.8-29.67-1.09-2.88-3.31-5.77-6.39-6s-5.74,2.36-8.69,3.5c-6.15,2.39-12.82-1.68-18-5.84s-10.95-8.9-17.49-8c-4.32.62-7.74,3.56-11.71,5.09-3,1.13-8.93,2.16-11.51-.33-5.41-5.26,7.2-18.21,9.46-22.86,1.88-3.84,2.81-8.12,5.07-11.75l.38-.59a20.71,20.71,0,0,0-4.32,4.92c-2.25,3.63-3.18,7.89-5.06,11.74-2.28,4.66-14.89,17.65-9.46,22.87,2.63,2.5,8.55,1.47,11.49.34,4-1.54,7.39-4.48,11.72-5.09,6.57-.93,12.36,3.81,17.49,8s11.83,8.23,18,5.84c2.94-1.15,5.52-3.72,8.68-3.49s5.26,3.12,6.4,6c3.59,9.44-.2,20.87,4.79,29.67,2.94,5.16,8.4,8.4,12,13.14a22.35,22.35,0,0,1,4.4,10.52c1,6.71-1.16,13.48-1,20.25.44,14.47,12,27,25.87,31.15,4.17,1.24,8.71,1.9,12.08,4.66,3.77,3.09,5.26,8.08,7.42,12.42,7.12,14,24.44,22,39.75,18.33l-3-3.44C681.47,216.17,668,208.63,662,196.69Z" transform="translate(-390.42 -13)"/><path class="cls-5" d="M571.33,136.68c-1.72,2.63-6.65,16.09-10.77,27.85-3.85-1.5-7.35-11.06-7.35-11.06l20.54-29.22C575.86,127.14,574.48,131.94,571.33,136.68Z" transform="translate(-390.42 -13)"/><path class="cls-9" d="M572.12,135.89c-1.72,2.63-6.65,16.09-10.77,27.85-3.85-1.49-7.35-11.06-7.35-11.06l20.54-29.21C576.65,126.35,575.26,131.17,572.12,135.89Z" transform="translate(-390.42 -13)"/><path class="cls-11" d="M452.7,270.22l-11.38-35.91a3.35,3.35,0,0,1,2.17-4.22h0a3.37,3.37,0,0,1,4.21,2.18l11.38,35.87L458,275.65Z" transform="translate(-390.42 -13)"/><path class="cls-12" d="M442.4,231.15h0a3.37,3.37,0,0,1,4.22,2.18L458,269.2l-.85,5.63.83.87,1.13-7.51-11.46-35.87a3.36,3.36,0,0,0-4.2-2.18h0a3.33,3.33,0,0,0-1.75,1.31A4,4,0,0,1,442.4,231.15Z" transform="translate(-390.42 -13)"/><polygon class="cls-13" points="62.29 257.22 68.68 255.19 67.74 261.35 67.55 262.7 65.68 260.75 62.29 257.22"/><path class="cls-14" d="M456.1,273.75a1.45,1.45,0,0,1,.4-.34.58.58,0,0,1,.62,0,1.69,1.69,0,0,1,.23.36,1.13,1.13,0,0,0,.81.54l-.2,1.31Z" transform="translate(-390.42 -13)"/><path class="cls-4" d="M441.25,247.06s22.84-.13,17.46,9.59-13.78,10.88-13.78,10.88Z" transform="translate(-390.42 -13)"/></svg>